<?xml version="1.0" encoding="utf-8"?>
<!-- Generator: Adobe Illustrator 18.0.0, SVG Export Plug-In . SVG Version: 6.00 Build 0)  -->
<!DOCTYPE svg PUBLIC "-//W3C//DTD SVG 1.1//EN" "http://www.w3.org/Graphics/SVG/1.1/DTD/svg11.dtd">
<svg version="1.1" id="Layer_1" xmlns="http://www.w3.org/2000/svg" xmlns:xlink="http://www.w3.org/1999/xlink" x="0px" y="0px"
	 viewBox="0 0 179 201" enable-background="new 0 0 179 201" xml:space="preserve">
<g>
	<g>
		<path fill="#474747" d="M59.2,17c16.7,0,33.1,0,49.5,0c0,4.6,0.4,9.1-0.1,13.5c-0.5,4.9-5,8.7-10.7,9.8c-0.4,0.1-0.9,0.2-1.3,0.2
			c-8.7,0-17.4,0.3-26-0.3c-6.2-0.4-11.9-5.2-11.4-13.5C59.3,23.6,59.2,20.4,59.2,17z"/>
		<path fill="#474747" d="M34,82.9c-0.6-1.2-1.1-2.2-1.6-3.4c-1.1,0.4-2.2,0.9-3.3,1.2c-1.7,0.6-3,0-3.7-1.7
			c-4.4-10.8-8.8-21.5-13.2-32.3c-1.1-2.8-0.6-3.8,2.1-5c0.7-0.3,1.5-0.6,2.3-1c-0.1-0.5-0.2-0.8-0.3-1.2c-0.9-3.6,0.7-6.9,3.7-8
			c3.4-1.2,6.8,0.3,8.2,3.9c3.3,8,6.6,16.1,9.8,24.1c2.1,5.2,4.2,10.3,6.4,15.5c0.4,0.9,0.7,1.9,1.2,3C41.7,79.7,38,81.3,34,82.9z"
			/>
		<path fill="#474747" d="M33.9,102.2c1,2.4,2,4.8,3.1,7.2c1.8,3.9,3.8,7.6,5.5,11.5c0.6,1.4,1.1,3,1.2,4.6
			c0.1,5.1,0.1,10.3,0.1,15.8c2.8,0,5.4,0.3,8-0.1c5.6-0.7,10.3,0.6,14,5c0.2,0.3,0.6,0.4,1.1,0.8c0.3-2,0.5-3.7,0.8-5.7
			c6,0,12,0.3,17.9-0.1c3.9-0.2,6.6,0.5,7.8,4.6c0.3,1,1.1,1.9,1.8,2.8c0.6,0.9,1.3,1.8,2.1,2.9c-0.8,0.1-1.3,0.2-1.8,0.2
			c-18.4,0-36.9,0-55.3,0c-4.8,0-6.7-1.9-6.7-6.7c0-13.6,0-27.1,0-40.7c0-0.7,0-1.3,0-2C33.6,102.3,33.8,102.2,33.9,102.2z"/>
		<path fill="#474747" d="M116.8,32.6c0-3.5,0-6.8,0-10.3c4.5,0,8.8-0.2,13.1,0.1c2.7,0.2,4.7,2.5,4.7,5.1c0,14.9,0,29.8,0,44.7
			c0,0.2-0.1,0.4-0.1,0.7c-3.3,0.4-6.5,0.8-10.1,1.2c0-0.8,0-1.6,0-2.4c0-12.2-0.1-24.3,0-36.5c0-2.1-0.7-2.7-2.7-2.5
			C120.1,32.7,118.4,32.6,116.8,32.6z"/>
		<path fill="#474747" d="M60.4,133c-1.2-1.4-2.6-2.8-3.7-4.3c-2.2-3-4.6-5.9-6.4-9.1c-2.8-5-5.3-10.1-7.7-15.4
			c-2.6-5.8-4.8-11.7-7.3-17.8c3.9-1.6,7.7-3.1,11.7-4.8c6.6,16.6,14.5,32.5,14.2,50.7C61,132.6,60.7,132.8,60.4,133z"/>
		<path fill="#474747" d="M56.2,84.7c15.8,0,31.3,0,46.8,0c-2.6,3.1-5.1,6.1-7.7,9c-0.3,0.3-0.9,0.4-1.4,0.4
			c-8.1,0-16.2-0.1-24.3-0.1c-2.6,0-5.3,0.1-7.9,0.2c-1.2,0.1-1.9-0.2-2.3-1.4C58.4,90.1,57.3,87.5,56.2,84.7z"/>
		<path fill="#474747" d="M43.3,53.1c-1.7-4.1-3.3-8.2-5.1-12.3c-1.4-3.4-2.9-6.7-4.5-10c-1.7-3.6,1-8.3,5-8.5c4-0.2,8.1,0,12.4,0
			c0,3.4,0,6.7,0,10.4c-2.3,0-4.8,0-7.5,0c0,7,0,13.7,0,20.4C43.6,53,43.5,53.1,43.3,53.1z"/>
		<path fill="#474747" d="M67.3,113.9c6.3,0,13,0,19.9,0c-0.2,3.1-0.4,6.1-0.6,9.5c-1.9,0-3.9,0-5.8,0c-3.3,0-6.6,0-9.9,0
			c-2.8,0-3.3-0.4-3.5-3.2C67.2,118.1,67.3,116.1,67.3,113.9z"/>
	</g>
	<path fill="#F29E44" d="M155,85.9c-1.8,1.8-3.5,3.7-5.4,5.4c-0.4,0.4-1.6,0.3-2.3,0c-9.9-3.8-19.7-3.5-28.8,2.1
		c-10.6,6.6-16.2,16.4-15.8,28.9c0.4,13.7,9.5,25.3,22.7,29.6c16.1,5.3,35.4-3.9,40.6-21.6c2.2-7.5,1.7-14.9-1.4-22
		c-0.5-1.2-0.5-2,0.3-3c1.5-1.9,2.9-3.8,4.4-5.8c9.7,13.7,9.2,35.8-5.1,50.2c-16.5,16.7-42.4,15.8-57.7,0.8
		c-15.6-15.3-16.2-39.4-3.2-55.2C118.2,77.3,142.5,77.4,155,85.9z"/>
	<path fill="#474747" d="M133.1,138.4c-6-9.5-11.8-18.7-17.9-28.4c4.6,0.7,9.1-1.7,12.9,1.9c0.7,0.7,1.6,1,2.4,1.5
		c3.1,2,2.2,2.3,5.2-0.5c10.5-10,20.9-20.1,31.4-30.1c0.5-0.5,1.4-0.8,2.1-0.9c1.8-0.1,3.5,0,5.8,0
		C161,100.9,147.2,119.5,133.1,138.4z"/>
	<path fill="#F29E44" d="M113,50.6c-1.8,2.8-3.5,5.7-5.4,8.3c-1.1,1.5-1.2,2.6,0,4.3c2.2,2.9,4,6,6.2,9.3c-2.5,0-5.2,0.7-7-0.2
		c-1.8-0.9-2.8-3.4-4.3-5.5c-1.1,1.6-1.9,3.1-3.1,4.5c-0.6,0.7-1.6,1.2-2.4,1.2c-0.6,0-1.4-0.8-1.8-1.4c-1.1-1.8-0.9-3.4,0.3-5.2
		c3.4-4.8,3.3-4.9,0-9.8c-1.2-1.8-2.3-3.6-3.7-5.8c2.4,0,4.5-0.1,6.5,0.1c0.5,0,1.1,0.6,1.4,1.1c0.9,1.3,1.7,2.7,3,4.6
		C104.4,50.2,108.3,49.7,113,50.6z"/>
	<path fill="#F29E44" d="M70.2,72.6c2.3-5.9,4.4-11.4,6.6-16.9c0.2-0.5,0.5-1.1,0.7-1.6c1.4-3.8,2.4-4.4,6.3-3.5
		c0.5,0.1,1.1,0.6,1.2,1c2.7,6.7,5.4,13.5,8.1,20.3c0.1,0.2,0,0.4,0,0.8c-1.8,0-3.6,0.2-5.3-0.1c-0.7-0.1-1.7-1.2-1.9-2
		c-0.5-2.1-1.7-2.7-3.7-2.4c-0.4,0.1-0.9,0.1-1.3,0c-2.2-0.5-3.2,0.7-3.5,2.5c-0.3,1.8-1.3,2.2-2.9,2C73.2,72.5,71.9,72.6,70.2,72.6
		z M79.9,62.4c1.4,0,2.4,0,3.7,0c-0.6-1.6-1.1-3-1.6-4.3c-0.2,0-0.3,0-0.5,0C80.9,59.5,80.5,60.8,79.9,62.4z"/>
	<path fill="#F29E44" d="M72,50.3c0,2,0,3.6,0,5.3c-1.1,0-2,0.1-2.9,0.1c-2.8,0-2.8,0-2.8,2.9c0,4.5,0,9.1,0,13.8
		c-2.1,0-3.9,0-6.1,0c0-2.2,0-4.3,0-6.4c0-2.7,0-5.4,0-8.2c0-1.4-0.4-2.3-2-2.1c-0.1,0-0.3,0-0.4,0c-4.2,0.1-3.6,0.5-3.5-3.8
		c0-0.5,0.9-1.5,1.5-1.6C61,50.3,66.3,50.3,72,50.3z"/>
	<path fill="#F29E44" d="M137.6,96.1c-0.1,2.9-0.6,3.5-2.7,3.5c-1.4,0-2.2-0.7-2.1-2.2c0-0.4,0-0.7,0-1.1c-0.3-2.7,0.2-3.5,2.4-3.6
		C137,92.6,137.6,93.4,137.6,96.1z"/>
	<path fill="#F29E44" d="M159.8,123.6c-1.4,0.1-3.1,0.2-3-2.3c0.1-2.1,0.4-2.4,3.9-2.5c1.6,0,3,0.1,3,2.2
		C163.5,123.3,163.1,123.5,159.8,123.6z"/>
	<path fill="#F29E44" d="M110.2,123.5c-1.9,0-3.7,0.4-3.7-2.3c0-2,1.1-2.6,2.8-2.4c1.6,0.2,3.9-0.9,4,2.3
		C113.4,123.7,111.8,123.6,110.2,123.5z"/>
	<path fill="#F29E44" d="M132.7,145.9c-0.2-1.5-0.1-3,2.4-2.9c1.7,0,2.5,0.7,2.4,2.3c0,0.6,0,1.2,0,1.8c0.1,1.8-0.5,2.7-2.5,2.6
		c-2,0-2.4-1-2.3-2.6C132.7,146.8,132.7,146.5,132.7,145.9z"/>
</g>
</svg>
