<?xml version="1.0" encoding="utf-8"?>
<!-- Generator: Adobe Illustrator 18.0.0, SVG Export Plug-In . SVG Version: 6.00 Build 0)  -->
<!DOCTYPE svg PUBLIC "-//W3C//DTD SVG 1.1//EN" "http://www.w3.org/Graphics/SVG/1.1/DTD/svg11.dtd">
<svg version="1.1" id="Layer_1" xmlns="http://www.w3.org/2000/svg" xmlns:xlink="http://www.w3.org/1999/xlink" x="0px" y="0px"
	 viewBox="0 0 179 201" enable-background="new 0 0 179 201" xml:space="preserve">
<g>
	<path fill="#474747" d="M114.5,160.1c1.9-1.2,2.5-2.8,2.3-4.9c-0.5-5.3-0.7-10.7-1.4-15.9c-0.8-5.7-1.9-11.4-3.1-17.1
		c-1-4.4-3-8.2-7.3-10.3c-1.7-0.9-3.5-1.7-5.4-2.3c-3.6-1.2-7.2-2.2-10.9-3.4c-3.2,11.8-6.1,23.6-11.4,34.6
		c-1.2-5.9-2.3-11.7-3.3-17.6c-0.3-1.9-0.8-3.9-0.5-5.8c0.4-3.1,0.6-3-2-4.8c-0.9-0.6-1.5-0.6-2.2,0c-0.4,0.4-0.9,0.7-1.4,0.9
		c-1.2,0.5-1.3,1.3-0.9,2.3c0.6,1.5,0.7,3,0.3,4.7c-0.9,4.3-1.6,8.7-2.4,13.1c-0.4,2.4-0.9,4.7-1.4,7.1
		c-5.3-11.1-8.4-22.8-11.5-34.7c-4.7,1.6-9.4,3-13.9,4.7c-4.6,1.7-7.6,5.1-9.1,9.8c-1.8,5.7-2.8,11.5-3.5,17.4
		c-0.6,5.2-0.9,10.4-1.4,15.5c0,0.3-0.2,0.7-0.3,1c0,2,0,3.9,0,5.9c30.2,0,59.9,0,90.1,0L114.5,160.1
		C114.4,160.1,114.7,160.1,114.5,160.1z"/>
	<path fill="#F29E44" d="M159.2,16.2c4.2,1.5,7,4.2,7.9,8.6c0.1,0.7,0.2,1.5,0.2,2.2c0,10.5-0.1,21,0,31.5
		c0.1,6.2-4.9,11.5-11.4,11.4c-8.8-0.1-17.6-0.1-26.5,0c-0.7,0-1.6,0.4-2.2,0.9c-4.8,4.9-9.5,9.8-14.3,14.7
		c-1.3,1.3-2.3,1.7-3.6,1.1c-1.4-0.7-1.8-1.9-1.8-3.4c0.1-4.4,0-8.8,0-13.4c-3.3,0-6.8,0-10.4,0c0.1-2,0.3-3.7,0.4-5.7
		c2.5,0,4.8,0,7.2,0c1.7,0,3.4,0,5.1,0c2.4,0,3.5,1.2,3.5,3.5c0,3,0,6,0,9.1c0.2-0.2,0.5-0.4,0.8-0.7c3.4-3.5,6.8-7,10.2-10.5
		c0.9-1,2-1.4,3.4-1.4c9.3,0,18.7-0.1,28,0.1c3.6,0.1,6-3,5.9-6c-0.1-10.3-0.1-20.6,0-31c0-3.3-2.2-6-6.1-6c-26.5,0.1-53,0-79.5,0
		c-1.6,0-3.2-0.1-4.6,1c-1.5,1.2-2.3,2.7-2.3,4.6c0,4.1,0,8.2,0,12.3c-1.9,0.2-3.6,0.5-5.6,0.7c0-1.3,0-2.6,0-3.8c0-3,0-6.1,0-9.1
		c0-5.2,2.9-9.2,7.9-10.8c0.1,0,0.1-0.1,0.2-0.2C101,16.2,130.1,16.2,159.2,16.2z"/>
	<path fill="#474747" d="M92.4,72.2c2.3,0.2,2.6,0.8,2.9,2.9c0.5,3.5-2.5,6.4-5.5,7.8c-0.4,0.2-0.8,0.6-0.9,1
		c-1.6,3.8-3.5,7.3-6.2,10.5c-3.3,3.8-7.1,6.7-12.4,6.6c-3.9-0.1-7-1.9-9.7-4.5c-3.6-3.4-6-7.6-8-12.1c-0.4-0.9-0.8-1.4-1.8-1.7
		c-3.5-1.2-5.5-5.1-4.7-8.7c0.3-1.5,1.4-1.8,2.6-1.7c-0.3-3.1-0.7-6.1-0.9-9.1c-0.3-5,1.3-9.2,5.4-12.3c3.1-2.4,5.9-5.2,9.7-6.6
		c7.9-2.9,15.2-1.6,21.7,3.6c1.5,1.2,2.9,2.4,4.4,3.6c3.2,2.7,4.7,6.2,4.6,10.3c0,3.2-0.6,6.3-0.9,9.5
		C92.5,71.5,92.5,71.8,92.4,72.2z"/>
	<path fill="#474747" d="M129.9,38.2c-0.7-0.1-1.4-0.1-2-0.2c-1.5-0.2-2.7-1-4-1.8c-0.5-0.3-1.1-0.6-1.7-0.9
		c-0.6,5.3-1.1,10.4-1.7,15.7c0.6,0,1.1,0,1.6,0c0.7,0,0.7,0,0.7,0.7c0,0.8,0.1,1.5,0.7,2c0.5,0.4,1.1,0.7,1.7,1.1
		c0,0.5,0,1.2,0,1.9c-3.6,0-7.3,0-10.9,0c0-0.7,0-1.4,0-2.1c0.1,0,0.2-0.1,0.3-0.1c1.4-0.4,2.2-1.3,2.2-2.8c0-0.8,0-0.8,0.8-0.8
		c0.5,0,0.9,0,1.4,0c-0.6-5.2-1.1-10.3-1.7-15.6c-0.2,0.1-0.5,0.1-0.6,0.2c-0.7,0.4-1.3,0.7-1.9,1.1c-1.6,1-3.2,1.5-5.1,1.5
		c0,0.2,0.1,0.3,0.1,0.4c1.4,2.8,2.8,5.6,4.2,8.3c0.1,0.2,0.3,0.4,0.6,0.7c-0.1,0.6-0.6,1-1.1,1.3c-1,0.6-2.1,0.8-3.3,0.9
		c-1.8,0.1-3.5-0.1-5.1-1c-0.5-0.3-0.9-0.7-0.9-1.3c0.2-0.2,0.4-0.3,0.5-0.5c1.5-2.9,2.9-5.8,4.4-8.7c0,0,0-0.1,0.1-0.2
		c-0.1-0.1-0.3-0.1-0.4-0.2c-0.6-0.4-0.8-1.2-0.3-1.8c0.4-0.6,1.3-0.7,1.8-0.2c0.3,0.3,0.6,0.3,1,0.3c1.1-0.2,2.1-0.6,3-1.3
		c1.8-1.2,3.8-1.9,6-1.9c2,0,3.8,0.7,5.4,1.8c1,0.7,2,1.2,3.3,1.3c0.2,0,0.5,0,0.7-0.2c0.4-0.4,0.9-0.5,1.4-0.3
		c0.5,0.2,0.7,0.5,0.8,1c0,0.6-0.2,1-0.7,1.3c-0.1,0-0.1,0.1-0.2,0.1c0.6,1.1,1.1,2.2,1.7,3.3c0.9,1.8,1.8,3.6,2.7,5.4
		c0.1,0.2,0.3,0.4,0.5,0.7c-0.1,0.6-0.5,1-1.1,1.3c-1.5,0.8-3.1,1.1-4.7,0.9c-1.1-0.1-2.1-0.4-3.2-0.7c-0.7-0.2-1.3-0.8-1.5-1.6
		c0.1,0.1,0.1,0.1,0.2,0.2c0.1-0.2,0.2-0.4,0.3-0.6c1.4-2.9,2.9-5.7,4.3-8.6C129.8,38.4,129.9,38.4,129.9,38.2z M109.2,39.1
		c-1.4,2.8-2.8,5.5-4.1,8.2c2.8,0,5.5,0,8.3,0C112,44.6,110.6,41.9,109.2,39.1z M130.2,39.1c-1.4,2.8-2.8,5.5-4.1,8.2
		c2.8,0,5.5,0,8.3,0C133,44.6,131.6,41.9,130.2,39.1z"/>
	<path fill="#474747" d="M117.8,30.9c1.3-0.3,2.6-0.3,3.8,0c-0.1,1.1-0.9,1.8-1.9,1.8C118.7,32.7,117.9,32,117.8,30.9z"/>
	<path fill="#474747" d="M121.5,29.9c-1.1,0-2.3,0-3.4,0c0.1-0.8,1.1-1.1,1.7-1.2C120.5,28.7,121.2,29.2,121.5,29.9z"/>
</g>
</svg>
