<?xml version="1.0" encoding="utf-8"?>
<!-- Generator: Adobe Illustrator 18.0.0, SVG Export Plug-In . SVG Version: 6.00 Build 0)  -->
<!DOCTYPE svg PUBLIC "-//W3C//DTD SVG 1.1//EN" "http://www.w3.org/Graphics/SVG/1.1/DTD/svg11.dtd">
<svg version="1.1" id="Layer_1" xmlns="http://www.w3.org/2000/svg" xmlns:xlink="http://www.w3.org/1999/xlink" x="0px" y="0px"
	 viewBox="0 0 179 201" enable-background="new 0 0 179 201" xml:space="preserve">
<g>
	<g>
		<path fill="#F29E44" d="M109,178.8c-0.1-1.9-0.3-3.4-0.3-4.9c0-18.3,0-36.6,0-54.8c0-5.4,0.2-10.8,0.1-16.3c0-2.3,0.9-3.4,3-3.9
			c6.7-1.6,13.3-3.4,20-4.7c8.6-1.7,17.4-2.8,26-4.4c2.2-0.4,2.7,0.3,2.7,2.3c0,24.9,0,49.7,0,74.6c0,2.1-0.9,2.6-2.8,2.7
			c-15.3,0.5-30,4.1-44.5,8.6C112,178.3,110.8,178.5,109,178.8z"/>
		<path fill="#F29E44" d="M82.7,178.4c-14.1-3-27.6-5.8-41.2-8.6c-1.6-0.3-3.3-0.2-4.9-0.2c-5.5-0.2-5.6-0.2-5.6-5.9
			c0-9,0-18.1,0-27.1c0-14.2,0-28.4,0-42.5c0-4.5,0.2-4.5,4.5-3.8c6.6,1,13.3,1.6,19.8,2.9c8.7,1.8,17.2,4.2,25.8,6.5
			c0.7,0.2,1.5,1.6,1.5,2.5c0.2,9.6,0.3,19.3,0.3,29c0,14.4,0,28.8-0.1,43.2C82.7,175.8,82.7,177.3,82.7,178.4z"/>
	</g>
	<path fill="#474747" d="M105.5,101.2c0.1,1.8,0.2,3.7,0.2,5.6c0,23-0.1,46-0.1,69c0,4.7-1.8,6.9-6.6,7.1c-3.1,0.1-6.3-0.1-9.4-0.7
		c-2.7-0.5-4-2.4-4-5.4c0.1-23,0.1-46,0.1-69c0-2.3,0-4.6,0-6.7C92.5,101.2,98.8,101.2,105.5,101.2z"/>
	<path fill="#474747" d="M119.1,64.7c-15.6-3.3-31.3-3.3-47.2,0.1c-0.1-1.7-0.3-3-0.3-4.3c0-7,0.1-14,0-21c0-1.8,0.4-2.7,2.3-3.3
		c11.6-3.8,23.3-4.7,35.1-1.7c2.8,0.7,5.6,1.1,8.3,2c1,0.3,2.3,1.8,2.3,2.7c0.1,8.1,0,16.2-0.1,24.3
		C119.5,63.8,119.3,64.1,119.1,64.7z"/>
	<path fill="#474747" d="M121.4,42.6c-0.1-0.6-0.3-1-0.2-1.3c0.9-4.6-2.1-6.1-5.6-7.1c-10.2-2.9-20.5-3.7-31-1.9
		c-3.4,0.6-6.8,1.4-10.2,2.1c-2.7,0.6-4.3,2.1-4.2,5.1c0,1-0.3,2-0.5,3.7c-7.6-2.8-14.8-5.6-22.8-8.6c2.5-1.2,4.2-2.1,6-2.8
		c9.3-3.6,18.5-7,27.8-10.6c3.4-1.3,6.7-2.9,10.1-4.2c2.8-1,5.6-1.7,8.8-0.3c6.2,2.7,12.7,4.9,19.1,7.3c5.5,2.1,11,4.2,16.5,6.4
		c0.9,0.4,2,1.7,2,2.6c0,1.6-0.3,4.3-1.3,4.7c-4.2,2-8.7,3.3-13.1,4.9C122.4,42.8,122,42.7,121.4,42.6z"/>
	<g>
		<path fill="#474747" d="M83,93.4C68,88.8,53.2,84,37.4,82.9c0.8-2.8,2.3-3.7,5-3.6c8.8,0.6,16.9,3.6,25,6.8
			C72.7,88.2,77.8,90.9,83,93.4z"/>
		<path fill="#474747" d="M110.6,91.7c8.5-3.3,16.9-6.7,25.5-9.7c4-1.4,8.3-1.7,12.5-2.6c2.8-0.6,4.5,0.6,5.5,3.6
			c-15,0.9-29,5.5-43.1,10.2C110.9,92.6,110.7,92.1,110.6,91.7z"/>
		<path fill="#474747" d="M83.3,88.7C70.7,83.6,59,78.8,47.3,74c1.1-2.4,3.3-2.1,5.3-1.5c9.6,3.1,18.5,7.8,26.7,13.7
			C80.4,87,81.6,87.6,83.3,88.7z"/>
		<path fill="#474747" d="M112.3,86.2c1.3-1,2.5-2.1,3.9-2.9c7.4-4.5,15-8.7,23.5-10.9c1.3-0.3,2.9,0.6,4.4,0.9
			c-0.1,0.3-0.1,0.5-0.2,0.8c-10.4,4.2-20.9,8.3-31.3,12.5C112.5,86.5,112.4,86.3,112.3,86.2z"/>
		<path fill="#474747" d="M107.1,85.5c6.5-6.6,13.5-12.5,22-16.3c0.6-0.3,1.3-0.7,2-0.7c0.8,0.1,1.6,0.6,2.3,0.9
			c-0.5,0.5-0.9,1.3-1.5,1.6c-4.7,2.6-9.6,4.9-14.2,7.6C114,80.6,110.6,83.1,107.1,85.5z"/>
		<path fill="#474747" d="M82.7,83.9c-8.4-4.8-16.5-9.5-24.9-14.4c0.6-1.9,2.6-1.6,3.8-0.8c6.8,4.4,13.5,9,20.2,13.6
			C82.2,82.6,82.4,83.3,82.7,83.9z"/>
	</g>
	<path fill="#F29E44" d="M138.3,40.5c0.5,1.7,1.1,4.2,1.8,6.7c0.1,0.2,0.2,0.5,0.2,0.6c-2.3,3.4,0.1,6.7,0.3,10.4
		c-1.4,0.1-2.8,0.1-4.6,0.2c0.4-2.1,0.9-3.7,1.1-5.4c0.1-1.4,0-2.8-0.1-4.1c0-0.5-0.3-1-0.2-1.5C137.3,44.8,137.9,42.2,138.3,40.5z"
		/>
	<path fill="#474747" d="M144.2,34.5c-1.9,0.8-3,1.2-4.5,1.8c-0.1-1.3-0.1-2.4-0.2-4.2C141.3,33,142.5,33.6,144.2,34.5z"/>
</g>
</svg>
