<?xml version="1.0" encoding="utf-8"?>
<!-- Generator: Adobe Illustrator 18.0.0, SVG Export Plug-In . SVG Version: 6.00 Build 0)  -->
<!DOCTYPE svg PUBLIC "-//W3C//DTD SVG 1.1//EN" "http://www.w3.org/Graphics/SVG/1.1/DTD/svg11.dtd">
<svg version="1.1" id="Layer_1" xmlns="http://www.w3.org/2000/svg" xmlns:xlink="http://www.w3.org/1999/xlink" x="0px" y="0px"
	 viewBox="0 0 179 201" enable-background="new 0 0 179 201" xml:space="preserve">
<path fill="#474747" d="M26.5,39.7c-1,1.6-2.1,3.1-3.1,4.7c-1,1.6-1.3,3.1-3.1,1.9c0-6.2-0.4-12.4,0.1-18.6c0.5-6.2,6-9.8,13.9-9.8
	c27.6,0,55.2,0,82.8,0c4.7,0,9.5,0,14.7,0c0,6.8,0,13.3,0,20.1c-4.6-1.7-9.2-3.9-14-5.1c-26.9-6.7-54.1,10.7-59.8,38.2
	c-5.6,27,12.4,53.7,39.4,58.7c8.7,1.6,17,0.7,25.3-2.1c5.8-2,9.4,0.6,9.6,6.8c0.1,2.8,0,5.6,0,9.6c0-0.5-28.9,0-30.7,0
	c-21.2,0.1-42.3,0.2-63.5-0.2c-2,0-5.7-0.9-7.3,0.8c-1.5,1.5-0.2,3.7,0.9,5c2.5,2.8,5.4,2,8.8,2c27.9,0.2,55.9,0.5,83.8,0.7
	c3.6,0,8,1,8.3,5.5c0.5,7.7-8.8,6.2-13.5,6.2c-4,0-7.9,0-11.9,0c-7.9,0-15.8,0-23.7,0c-15.8,0-31.6,0-47.4,0c-0.9,0-1.9,0-2.8,0
	c-9.2,0-13.1-4.1-13.1-13.3c0-24.4,0.1-48.7-0.1-73.1c0-3.9,0.6-7,3.9-9.5c3.9-2.9,4.9-6.8,4.6-11.5c-0.2-3.3-0.2-6.5-0.2-9.8
	c0-1.5,0.3-3.2,0.1-4.7C28.2,40.5,28.1,40.6,26.5,39.7z"/>
<path fill="#F29E44" d="M68.3,80.4c0-18.9,15.6-36.2,33.8-37.3c21.3-1.3,38.9,12.3,41.5,32.1c1.3,9.4-0.2,18-5.1,26.2
	c-0.8,1.3-0.3,4.6,0.8,5.6c5.1,4.8,10.8,9.1,16,13.8c3.9,3.6,7.5,7.5,11.2,11.4c3.1,3.2,3,6.6,0,9.5c-2.8,2.7-5.8,2.1-8.5-0.7
	c-5.3-5.4-10.9-10.6-16.1-16.2c-3.3-3.5-5.7-7.9-9-11.4c-0.9-1-4.1-1.1-5.4-0.3c-12.5,7.8-25.6,8.4-38.5,2.1
	C75.8,109,68.3,95.3,68.3,80.4z M105.8,107.4c14.3,0.4,26-10.9,26.4-25.5c0.4-14.8-10.8-27-25.3-27.5c-14.1-0.5-26.4,11.5-27,26.1
	C79.4,94.9,91,107,105.8,107.4z"/>
</svg>
